REM DIRINDEX 1\2,1\3
REM DIRNAME cjc143,folder01,folder02
TITLE ""
FILE "2000 phrasesTrack37.mp3" MP3
  TRACK 01 AUDIO
    TITLE "2:cjc143_1336"
    INDEX 01 00:00:00
  TRACK 02 AUDIO
    TITLE "0:"
    INDEX 01 00:00:52
  TRACK 03 AUDIO
    TITLE "2:cjc143_1337"
    INDEX 01 00:01:22
  TRACK 04 AUDIO
    TITLE "0:"
    INDEX 01 00:02:43
  TRACK 05 AUDIO
    TITLE "2:cjc143_1338"
    INDEX 01 00:03:14
  TRACK 06 AUDIO
    TITLE "0:"
    INDEX 01 00:04:29
  TRACK 07 AUDIO
    TITLE "2:cjc143_1339"
    INDEX 01 00:04:74
  TRACK 08 AUDIO
    TITLE "0:"
    INDEX 01 00:06:20
  TRACK 09 AUDIO
    TITLE "2:cjc143_1340"
    INDEX 01 00:06:65
  TRACK 10 AUDIO
    TITLE "0:"
    INDEX 01 00:08:13
  TRACK 11 AUDIO
    TITLE "2:cjc143_1341"
    INDEX 01 00:08:58
  TRACK 12 AUDIO
    TITLE "0:"
    INDEX 01 00:10:10
  TRACK 13 AUDIO
    TITLE "2:cjc143_1342"
    INDEX 01 00:10:55
  TRACK 14 AUDIO
    TITLE "0:"
    INDEX 01 00:11:72
  TRACK 15 AUDIO
    TITLE "2:cjc143_1343"
    INDEX 01 00:12:50
  TRACK 16 AUDIO
    TITLE "0:"
    INDEX 01 00:13:67
  TRACK 17 AUDIO
    TITLE "2:cjc143_1344"
    INDEX 01 00:14:37
  TRACK 18 AUDIO
    TITLE "0:"
    INDEX 01 00:15:66
  TRACK 19 AUDIO
    TITLE "2:cjc143_1345"
    INDEX 01 00:16:38
  TRACK 20 AUDIO
    TITLE "0:"
    INDEX 01 00:17:70
  TRACK 21 AUDIO
    TITLE "2:cjc143_1346"
    INDEX 01 00:18:41
  TRACK 22 AUDIO
    TITLE "0:"
    INDEX 01 00:19:67
  TRACK 23 AUDIO
    TITLE "2:cjc143_1347"
    INDEX 01 00:20:36
  TRACK 24 AUDIO
    TITLE "0:"
    INDEX 01 00:21:58
  TRACK 25 AUDIO
    TITLE "2:cjc143_1348"
    INDEX 01 00:22:27
  TRACK 26 AUDIO
    TITLE "0:"
    INDEX 01 00:23:44
  TRACK 27 AUDIO
    TITLE "2:cjc143_1349"
    INDEX 01 00:24:12
  TRACK 28 AUDIO
    TITLE "0:"
    INDEX 01 00:25:37
  TRACK 29 AUDIO
    TITLE "2:cjc143_1350"
    INDEX 01 00:26:05
  TRACK 30 AUDIO
    TITLE "0:"
    INDEX 01 00:27:22
  TRACK 31 AUDIO
    TITLE "2:cjc143_1351"
    INDEX 01 00:27:65
  TRACK 32 AUDIO
    TITLE "0:"
    INDEX 01 00:29:11
  TRACK 33 AUDIO
    TITLE "2:cjc143_1352"
    INDEX 01 00:29:54
  TRACK 34 AUDIO
    TITLE "0:"
    INDEX 01 00:31:00
  TRACK 35 AUDIO
    TITLE "2:cjc143_1353"
    INDEX 01 00:31:43
  TRACK 36 AUDIO
    TITLE "0:"
    INDEX 01 00:33:15
  TRACK 37 AUDIO
    TITLE "2:cjc143_1354"
    INDEX 01 00:33:58
  TRACK 38 AUDIO
    TITLE "0:"
    INDEX 01 00:35:06
  TRACK 39 AUDIO
    TITLE "2:cjc143_1355"
    INDEX 01 00:35:51
  TRACK 40 AUDIO
    TITLE "0:"
    INDEX 01 00:36:68
  TRACK 41 AUDIO
    TITLE "2:cjc143_1356"
    INDEX 01 00:37:40
  TRACK 42 AUDIO
    TITLE "0:"
    INDEX 01 00:38:61
  TRACK 43 AUDIO
    TITLE "2:cjc143_1357"
    INDEX 01 00:39:41
  TRACK 44 AUDIO
    TITLE "0:"
    INDEX 01 00:40:68
  TRACK 45 AUDIO
    TITLE "2:cjc143_1358"
    INDEX 01 00:41:40
  TRACK 46 AUDIO
    TITLE "0:"
    INDEX 01 00:42:61
  TRACK 47 AUDIO
    TITLE "2:cjc143_1359"
    INDEX 01 00:43:33
  TRACK 48 AUDIO
    TITLE "0:"
    INDEX 01 00:44:58
  TRACK 49 AUDIO
    TITLE "2:cjc143_1360"
    INDEX 01 00:45:28
  TRACK 50 AUDIO
    TITLE "0:"
    INDEX 01 00:46:58
  TRACK 51 AUDIO
    TITLE "2:cjc143_1361"
    INDEX 01 00:47:28
  TRACK 52 AUDIO
    TITLE "0:"
    INDEX 01 00:48:49
  TRACK 53 AUDIO
    TITLE "2:cjc143_1362"
    INDEX 01 00:49:16
  TRACK 54 AUDIO
    TITLE "0:"
    INDEX 01 00:50:39
  TRACK 55 AUDIO
    TITLE "2:cjc143_1363"
    INDEX 01 00:51:07
  TRACK 56 AUDIO
    TITLE "0:"
    INDEX 01 00:52:24
  TRACK 57 AUDIO
    TITLE "2:cjc143_1364"
    INDEX 01 00:52:67
  TRACK 58 AUDIO
    TITLE "0:"
    INDEX 01 00:54:23
  TRACK 59 AUDIO
    TITLE "2:cjc143_1365"
    INDEX 01 00:54:66
  TRACK 60 AUDIO
    TITLE "0:"
    INDEX 01 00:56:29
  TRACK 61 AUDIO
    TITLE "2:cjc143_1366"
    INDEX 01 00:57:01
  TRACK 62 AUDIO
    TITLE "0:"
    INDEX 01 00:58:24
  TRACK 63 AUDIO
    TITLE "2:cjc143_1367"
    INDEX 01 00:59:00
  TRACK 64 AUDIO
    TITLE "0:"
    INDEX 01 01:00:41
  TRACK 65 AUDIO
    TITLE "2:cjc143_1368"
    INDEX 01 01:01:17
  TRACK 66 AUDIO
    TITLE "0:"
    INDEX 01 01:02:52
  TRACK 67 AUDIO
    TITLE "2:cjc143_1369"
    INDEX 01 01:03:20
  TRACK 68 AUDIO
    TITLE "0:"
    INDEX 01 01:04:47
  TRACK 69 AUDIO
    TITLE "2:cjc143_1370"
    INDEX 01 01:05:22
  TRACK 70 AUDIO
    TITLE "0:"
    INDEX 01 01:06:47
  TRACK 71 AUDIO
    TITLE "2:cjc143_1371"
    INDEX 01 01:07:29
  TRACK 72 AUDIO
    TITLE "0:"
    INDEX 01 01:08:54
  TRACK 73 AUDIO
    TITLE "2:cjc143_1372"
    INDEX 01 01:09:26
  TRACK 74 AUDIO
    TITLE "0:"
    INDEX 01 01:10:65
  TRACK 75 AUDIO
    TITLE "2:cjc143_1373"
    INDEX 01 01:11:39
  TRACK 76 AUDIO
    TITLE "0:"
    INDEX 01 01:12:50
  TRACK 77 AUDIO
    TITLE "2:cjc143_1374"
    INDEX 01 01:13:24
  TRACK 78 AUDIO
    TITLE "0:"
    INDEX 01 01:15:07
  TRACK 79 AUDIO
    TITLE "2:cjc143_1375"
    INDEX 01 01:15:52
  TRACK 80 AUDIO
    TITLE "0:"
    INDEX 01 01:17:10
  TRACK 81 AUDIO
    TITLE "2:cjc143_1376"
    INDEX 01 01:17:57
  TRACK 82 AUDIO
    TITLE "0:"
    INDEX 01 01:19:09
  TRACK 83 AUDIO
    TITLE "2:cjc143_1377"
    INDEX 01 01:19:56
  TRACK 84 AUDIO
    TITLE "0:"
    INDEX 01 01:21:14
  TRACK 85 AUDIO
    TITLE "2:cjc143_1378"
    INDEX 01 01:21:63
  TRACK 86 AUDIO
    TITLE "0:"
    INDEX 01 01:23:15
  TRACK 87 AUDIO
    TITLE "2:cjc143_1379"
    INDEX 01 01:23:60
  TRACK 88 AUDIO
    TITLE "0:"
    INDEX 01 01:25:09
  TRACK 89 AUDIO
    TITLE "2:cjc143_1380"
    INDEX 01 01:25:64
  TRACK 90 AUDIO
    TITLE "0:"
    INDEX 01 01:27:30
  TRACK 91 AUDIO
    TITLE "2:cjc143_1381"
    INDEX 01 01:27:73
  TRACK 92 AUDIO
    TITLE "0:"
    INDEX 01 01:29:46
  TRACK 93 AUDIO
    TITLE "2:cjc143_1382"
    INDEX 01 01:30:15
  TRACK 94 AUDIO
    TITLE "0:"
    INDEX 01 01:31:38
  TRACK 95 AUDIO
    TITLE "2:cjc143_1383"
    INDEX 01 01:32:10
  TRACK 96 AUDIO
    TITLE "0:"
    INDEX 01 01:33:34
  TRACK 97 AUDIO
    TITLE "2:cjc143_1384"
    INDEX 01 01:34:10
  TRACK 98 AUDIO
    TITLE "0:"
    INDEX 01 01:35:43
  TRACK 99 AUDIO
    TITLE "2:cjc143_1385"
    INDEX 01 01:36:11
  TRACK 100 AUDIO
    TITLE "0:"
    INDEX 01 01:37:40
  TRACK 101 AUDIO
    TITLE "2:cjc143_1386"
    INDEX 01 01:38:24
  TRACK 102 AUDIO
    TITLE "0:"
    INDEX 01 01:39:49
  TRACK 103 AUDIO
    TITLE "2:cjc143_1387"
    INDEX 01 01:40:33
  TRACK 104 AUDIO
    TITLE "0:"
    INDEX 01 01:41:57
  TRACK 105 AUDIO
    TITLE "2:cjc143_1388"
    INDEX 01 01:42:41
  TRACK 106 AUDIO
    TITLE "0:"
    INDEX 01 01:43:68
  TRACK 107 AUDIO
    TITLE "2:cjc143_1389"
    INDEX 01 01:44:36
  TRACK 108 AUDIO
    TITLE "0:"
    INDEX 01 01:45:61
  TRACK 109 AUDIO
    TITLE "2:cjc143_1390"
    INDEX 01 01:46:29
  TRACK 110 AUDIO
    TITLE "0:"
    INDEX 01 01:47:70
  TRACK 111 AUDIO
    TITLE "2:cjc143_1391"
    INDEX 01 01:48:40
  TRACK 112 AUDIO
    TITLE "0:"
    INDEX 01 01:49:59
  TRACK 113 AUDIO
    TITLE "2:cjc143_1392"
    INDEX 01 01:50:29
  TRACK 114 AUDIO
    TITLE "0:"
    INDEX 01 01:51:50
  TRACK 115 AUDIO
    TITLE "2:cjc143_1393"
    INDEX 01 01:52:22
  TRACK 116 AUDIO
    TITLE "0:"
    INDEX 01 01:53:39
  TRACK 117 AUDIO
    TITLE "2:cjc143_1394"
    INDEX 01 01:54:11
  TRACK 118 AUDIO
    TITLE "0:"
    INDEX 01 01:55:40
  TRACK 119 AUDIO
    TITLE "2:cjc143_1395"
    INDEX 01 01:56:06
  TRACK 120 AUDIO
    TITLE "0:"
    INDEX 01 01:57:43
  TRACK 121 AUDIO
    TITLE "2:cjc143_1396"
    INDEX 01 01:58:15
  TRACK 122 AUDIO
    TITLE "0:"
    INDEX 01 01:59:71
  TRACK 123 AUDIO
    TITLE "2:cjc143_1397"
    INDEX 01 02:00:41
  TRACK 124 AUDIO
    TITLE "0:"
    INDEX 01 02:01:62
  TRACK 125 AUDIO
    TITLE "2:cjc143_1398"
    INDEX 01 02:02:34
  TRACK 126 AUDIO
    TITLE "0:"
    INDEX 01 02:03:59
  TRACK 127 AUDIO
    TITLE "2:cjc143_1399"
    INDEX 01 02:04:29
  TRACK 128 AUDIO
    TITLE "0:"
    INDEX 01 02:05:50
  TRACK 129 AUDIO
    TITLE "2:cjc143_1400"
    INDEX 01 02:06:22
  TRACK 130 AUDIO
    TITLE "0:"
    INDEX 01 02:07:45
  TRACK 131 AUDIO
    TITLE "2:cjc143_1401"
    INDEX 01 02:08:13
  TRACK 132 AUDIO
    TITLE "0:"
    INDEX 01 02:09:30
  TRACK 133 AUDIO
    TITLE "2:cjc143_1402"
    INDEX 01 02:10:00
  TRACK 134 AUDIO
    TITLE "0:"
    INDEX 01 02:11:17
  TRACK 135 AUDIO
    TITLE "2:cjc143_1403"
    INDEX 01 02:11:64
  TRACK 136 AUDIO
    TITLE "0:"
    INDEX 01 02:13:12
  TRACK 137 AUDIO
    TITLE "2:cjc143_1404"
    INDEX 01 02:13:59
  TRACK 138 AUDIO
    TITLE "0:"
    INDEX 01 02:15:21
  TRACK 139 AUDIO
    TITLE "2:cjc143_1405"
    INDEX 01 02:15:68
  TRACK 140 AUDIO
    TITLE "0:"
    INDEX 01 02:17:61
  TRACK 141 AUDIO
    TITLE "2:cjc143_1406"
    INDEX 01 02:18:33
  TRACK 142 AUDIO
    TITLE "0:"
    INDEX 01 02:19:58
  TRACK 143 AUDIO
    TITLE "2:cjc143_1407"
    INDEX 01 02:20:26
  TRACK 144 AUDIO
    TITLE "0:"
    INDEX 01 02:21:73
  TRACK 145 AUDIO
    TITLE "2:cjc143_1408"
    INDEX 01 02:22:53
  TRACK 146 AUDIO
    TITLE "0:"
    INDEX 01 02:24:24
  TRACK 147 AUDIO
    TITLE "2:cjc143_1409"
    INDEX 01 02:24:71
  TRACK 148 AUDIO
    TITLE "0:"
    INDEX 01 02:26:64
  TRACK 149 AUDIO
    TITLE "2:cjc143_1410"
    INDEX 01 02:27:36
  TRACK 150 AUDIO
    TITLE "0:"
    INDEX 01 02:28:65
  TRACK 151 AUDIO
    TITLE "2:cjc143_1411"
    INDEX 01 02:29:39
  TRACK 152 AUDIO
    TITLE "0:"
    INDEX 01 02:30:60
  TRACK 153 AUDIO
    TITLE "2:cjc143_1412"
    INDEX 01 02:31:30
  TRACK 154 AUDIO
    TITLE "0:"
    INDEX 01 02:32:71
  TRACK 155 AUDIO
    TITLE "2:cjc143_1413"
    INDEX 01 02:33:46
  TRACK 156 AUDIO
    TITLE "0:"
    INDEX 01 02:35:20
  TRACK 157 AUDIO
    TITLE "2:cjc143_1414"
    INDEX 01 02:35:63
  TRACK 158 AUDIO
    TITLE "0:"
    INDEX 01 02:37:15
  TRACK 159 AUDIO
    TITLE "2:cjc143_1415"
    INDEX 01 02:37:60
  TRACK 160 AUDIO
    TITLE "0:"
    INDEX 01 02:39:14
  TRACK 161 AUDIO
    TITLE "2:cjc143_1416"
    INDEX 01 02:39:61
  TRACK 162 AUDIO
    TITLE "0:"
    INDEX 01 02:41:28
  TRACK 163 AUDIO
    TITLE "2:cjc143_1417"
    INDEX 01 02:41:73
  TRACK 164 AUDIO
    TITLE "0:"
    INDEX 01 02:43:41
  TRACK 165 AUDIO
    TITLE "2:cjc143_1418"
    INDEX 01 02:44:09
  TRACK 166 AUDIO
    TITLE "0:"
    INDEX 01 02:45:26
  TRACK 167 AUDIO
    TITLE "2:cjc143_1419"
    INDEX 01 02:45:71
  TRACK 168 AUDIO
    TITLE "0:"
    INDEX 01 02:47:21
  TRACK 169 AUDIO
    TITLE "2:cjc143_1420"
    INDEX 01 02:47:66
  TRACK 170 AUDIO
    TITLE "0:"
    INDEX 01 02:49:24
  TRACK 171 AUDIO
    TITLE "2:cjc143_1421"
    INDEX 01 02:49:69
  TRACK 172 AUDIO
    TITLE "0:"
    INDEX 01 02:51:25
  TRACK 173 AUDIO
    TITLE "2:cjc143_1422"
    INDEX 01 02:51:70
  TRACK 174 AUDIO
    TITLE "0:"
    INDEX 01 02:53:30
  TRACK 175 AUDIO
    TITLE "2:cjc143_1423"
    INDEX 01 02:54:00
  TRACK 176 AUDIO
    TITLE "0:"
    INDEX 01 02:55:23
  TRACK 177 AUDIO
    TITLE "2:cjc143_1424"
    INDEX 01 02:55:66
  TRACK 178 AUDIO
    TITLE "0:"
    INDEX 01 02:57:21
  TRACK 179 AUDIO
    TITLE "2:cjc143_1425"
    INDEX 01 02:57:74
  TRACK 180 AUDIO
    TITLE "0:"
    INDEX 01 02:59:26
  TRACK 181 AUDIO
    TITLE "2:cjc143_1426"
    INDEX 01 02:59:73
  TRACK 182 AUDIO
    TITLE "0:"
    INDEX 01 03:01:17
  TRACK 183 AUDIO
    TITLE "2:cjc143_1427"
    INDEX 01 03:01:62
  TRACK 184 AUDIO
    TITLE "0:"
    INDEX 01 03:02:66
  TRACK 185 AUDIO
    TITLE "2:cjc143_1428"
    INDEX 01 03:03:36
  TRACK 186 AUDIO
    TITLE "0:"
    INDEX 01 03:04:71
  TRACK 187 AUDIO
    TITLE "2:cjc143_1429"
    INDEX 01 03:05:46
  TRACK 188 AUDIO
    TITLE "0:"
    INDEX 01 03:07:00
  TRACK 189 AUDIO
    TITLE "2:cjc143_1430"
    INDEX 01 03:07:45
  TRACK 190 AUDIO
    TITLE "0:"
    INDEX 01 03:09:09
  TRACK 191 AUDIO
    TITLE "2:cjc143_1431"
    INDEX 01 03:09:58
  TRACK 192 AUDIO
    TITLE "0:"
    INDEX 01 03:12:09
  TRACK 193 AUDIO
    TITLE "2:cjc143_1432"
    INDEX 01 03:12:62
  TRACK 194 AUDIO
    TITLE "0:"
    INDEX 01 03:15:17
  TRACK 195 AUDIO
    TITLE "2:cjc143_1433"
    INDEX 01 03:15:59
  TRACK 196 AUDIO
    TITLE "0:"
    INDEX 01 03:17:16
